<?xml version="1.0" standalone="no"?><!DOCTYPE svg PUBLIC "-//W3C//DTD SVG 1.1//EN" "http://www.w3.org/Graphics/SVG/1.1/DTD/svg11.dtd"><svg t="1578042514968" class="icon" viewBox="0 0 1065 1024" version="1.1" xmlns="http://www.w3.org/2000/svg" p-id="3153" xmlns:xlink="http://www.w3.org/1999/xlink" width="208.0078125" height="200"><defs><style type="text/css"></style></defs><path d="M977.255046 919.72935a52.881029 52.881029 0 0 1-58.548375 5.752569l-121.357913-50.665224-60.167617 115.988848a52.241854 52.241854 0 0 1-48.449419 32.810952h-0.681787a52.327078 52.327078 0 0 1-49.770379-34.472806l-61.147685-166.185344a362.411885 362.411885 0 0 1-89.100911-0.298281l-61.232907 166.441014a52.327078 52.327078 0 0 1-49.727769 34.472806h-0.681786a52.327078 52.327078 0 0 1-48.534643-32.810953l-60.082393-115.988848-121.357913 50.665225a52.795805 52.795805 0 0 1-58.548375-5.75257 51.432233 51.432233 0 0 1-16.192418-58.42054l93.489909-253.965295a408.475053 408.475053 0 0 1-50.02605-194.436852 417.593941 417.593941 0 0 1 834.761766 0 408.38983 408.38983 0 0 1-49.727768 195.118638l93.191627 253.283509a51.389622 51.389622 0 0 1-16.107194 58.463152zM146.030045 853.638717l107.807415-44.997878a53.562815 53.562815 0 0 1 67.752486 24.331239L374.982315 935.836544l46.276226-125.704298a420.19325 420.19325 0 0 1-209.691815-134.737964zM532.645333 66.559361A348.690941 348.690941 0 0 0 182.420374 412.906662a342.938371 342.938371 0 0 0 47.767633 174.707669 352.483376 352.483376 0 0 0 302.542549 171.639633 356.829762 356.829762 0 0 0 61.147685-5.24123A346.091632 346.091632 0 0 0 532.645333 66.559361z m321.4195 609.942824a416.017311 416.017311 0 0 1-209.904873 134.184012l46.148392 125.150347 53.349756-102.992301a53.43498 53.43498 0 0 1 67.752487-24.373851l107.850027 44.997878z m-167.037577-230.102784l8.948442 54.329824a65.579293 65.579293 0 0 1-27.271441 64.684449 67.368982 67.368982 0 0 1-70.7353 4.261163l-49.003371-26.035704-49.429487 25.183471a67.241147 67.241147 0 0 1-70.650077-5.624735 65.664517 65.664517 0 0 1-26.163539-65.153177l9.885898-54.116766-39.500978-38.77658a65.408847 65.408847 0 0 1-16.405476-68.178602 66.687196 66.687196 0 0 1 54.585493-44.742208l55.139445-7.414423 25.055637-49.131206a66.772419 66.772419 0 0 1 59.911947-36.475552h0.596563a66.729807 66.729807 0 0 1 59.656277 37.540843l24.160792 49.51471 54.968999 8.522325a66.516749 66.516749 0 0 1 53.818484 45.637052 65.49407 65.49407 0 0 1-17.55599 67.880322z m-61.232907-94.342142a67.155924 67.155924 0 0 1-50.239108-36.816445l-24.160792-49.472099-25.055637 49.131206a67.113312 67.113312 0 0 1-50.793059 35.87899l-55.182056 7.414423 39.500978 38.733968a65.74974 65.74974 0 0 1 18.791727 58.93188l-9.843286 54.116766 49.429487-25.14086a67.283758 67.283758 0 0 1 30.722983-7.371811 68.178603 68.178603 0 0 1 31.70305 7.840539l49.088594 26.078315-8.948441-54.329824a66.00541 66.00541 0 0 1 19.771794-58.548375l40.225376-38.094794z" p-id="3154"></path></svg>